<svg version="1.1" xmlns="http://www.w3.org/2000/svg" xmlns:xlink="http://www.w3.org/1999/xlink" x="0px" y="0px" viewBox="0 0 24 24" width="15px" height="15px" fill="#9e9e9e" style="enable-background:new 0 0 24 24;" xml:space="preserve"><g id="Layer_6"><path id="magnifier-4" d="M23.204,20.058l-4.977-4.977c0.965-1.521,1.523-3.322,1.523-5.251c0-5.42-4.409-9.83-9.83-9.83C4.5,0,0.092,4.41,0.092,9.83c0,5.419,4.408,9.83,9.829,9.83c1.834,0,3.552-0.506,5.023-1.383l5.021,5.021C22.108,25.439,25.349,22.202,23.204,20.058z M3.139,9.83c0-3.739,3.043-6.782,6.782-6.782c3.74,0,6.783,3.042,6.783,6.782c0,3.74-3.043,6.782-6.783,6.782C6.182,16.611,3.139,13.569,3.139,9.83z M5.149,8.066C7.133,3.467,13.813,4,15.072,8.815C12.538,5.841,8.079,5.521,5.149,8.066z"/></g></svg>