<svg xmlns="http://www.w3.org/2000/svg" width="256" height="256"><path d="M109.861 85.561v-41.452c0-1.426-1.162-2.595-2.589-2.595-1.434 0-2.589 1.169-2.589 2.595 0 26.793-10.434 51.983-29.378 70.951l-59.671 59.651c-.799.812-.992 2.029-.473 3.045 2.736 5.302 5.906 10.481 9.402 15.387.427.604 1.132 1.008 1.892 1.077l.209.016c.697 0 1.349-.279 1.837-.768l62.594-62.612c12.108-12.099 18.766-28.19 18.766-45.295zM191.492 9.729c-.768-.468-1.775-.468-2.589 0-.791.464-1.295 1.312-1.295 2.244v115.062c0 17.104 6.675 33.188 18.767 45.288l21.131 21.146c.48.488 1.154.768 1.837.768l.225-.016c.752-.069 1.465-.473 1.907-1.077 15.386-21.665 23.525-47.082 23.525-73.527 0-45.104-24.316-87.212-63.508-109.888zM68.384 44.109v-32.135c0-.932-.496-1.78-1.287-2.244-.813-.468-1.806-.468-2.597 0-39.168 22.675-63.5 64.783-63.5 109.887 0 3.613.193 7.481.597 11.822.101.992.76 1.845 1.705 2.209.279.084.582.14.884.14.675 0 1.326-.264 1.822-.752l43.633-43.641c12.091-12.093 18.743-28.184 18.743-45.286zM180.718 198.004c-18.952-18.959-29.401-44.168-29.401-70.969v-41.474c0-1.43-1.147-2.599-2.589-2.599-1.411 0-2.589 1.169-2.589 2.599 0 26.805-10.434 52.021-29.386 70.973l-62.594 62.586c-.542.549-.813 1.277-.752 2.045.062.768.45 1.465 1.078 1.908 21.649 15.408 47.074 23.548 73.515 23.548s51.873-8.14 73.522-23.548c.62-.443 1.023-1.141 1.062-1.908.085-.768-.194-1.496-.722-2.045l-21.144-21.116z"/></svg>